<?xml version="1.0" encoding="UTF-8" standalone="no"?>
<!-- Created with Inkscape (http://www.inkscape.org/) -->

<svg
   width="499.49319"
   height="572.96106"
   viewBox="0 0 499.49319 572.96106"
   version="1.1"
   id="svg5"
   sodipodi:docname="bitmap.svg"
   inkscape:version="1.2.2 (732a01da63, 2022-12-09, custom)"
   xmlns:inkscape="http://www.inkscape.org/namespaces/inkscape"
   xmlns:sodipodi="http://sodipodi.sourceforge.net/DTD/sodipodi-0.dtd"
   xmlns:xlink="http://www.w3.org/1999/xlink"
   xmlns="http://www.w3.org/2000/svg"
   xmlns:svg="http://www.w3.org/2000/svg">
  <sodipodi:namedview
     id="namedview21"
     pagecolor="#ffffff"
     bordercolor="#000000"
     borderopacity="0.25"
     inkscape:showpageshadow="2"
     inkscape:pageopacity="0.0"
     inkscape:pagecheckerboard="0"
     inkscape:deskcolor="#d1d1d1"
     showgrid="false"
     inkscape:zoom="1.3753116"
     inkscape:cx="223.94925"
     inkscape:cy="286.84408"
     inkscape:window-width="1846"
     inkscape:window-height="1016"
     inkscape:window-x="0"
     inkscape:window-y="0"
     inkscape:window-maximized="1"
     inkscape:current-layer="svg5" />
  <defs
     id="defs2">
    <linearGradient
       id="linearGradient1917">
      <stop
         style="stop-color:#48acb3;stop-opacity:1;"
         offset="0"
         id="stop1913" />
      <stop
         style="stop-color:#bfe7ea;stop-opacity:1;"
         offset="1"
         id="stop1915" />
    </linearGradient>
    <linearGradient
       id="linearGradient1886">
      <stop
         style="stop-color:#2fb0af;stop-opacity:1;"
         offset="0"
         id="stop1882" />
      <stop
         style="stop-color:#bfecec;stop-opacity:1;"
         offset="1"
         id="stop1884" />
    </linearGradient>
    <linearGradient
       xlink:href="#linearGradient1886"
       id="linearGradient1888"
       x1="493.52924"
       y1="528.65613"
       x2="993.41394"
       y2="528.65613"
       gradientUnits="userSpaceOnUse"
       gradientTransform="translate(-136.3775,153.49634)" />
    <linearGradient
       xlink:href="#linearGradient1917"
       id="linearGradient1919"
       x1="493.52924"
       y1="528.65613"
       x2="993.41394"
       y2="528.65613"
       gradientUnits="userSpaceOnUse"
       gradientTransform="translate(-136.3775,153.49634)" />
  </defs>
  <g
     id="g1990"
     transform="translate(-494.99887,-236.91068)"
     inkscape:export-filename="g1990.png"
     inkscape:export-xdpi="96"
     inkscape:export-ydpi="96">
    <g
       id="g2360">
      <path
         id="path1848"
         style="fill:none;stroke:#8ecce2;stroke-width:21;stroke-dasharray:none;stroke-opacity:1"
         d="M 875.64683,451.93373 A 292.93158,154.79611 66.619876 0 1 865.34516,789.18684" />
      <path
         id="path1518"
         style="fill:none;stroke:#8ecce2;stroke-width:21;stroke-dasharray:none;stroke-opacity:1"
         d="m 611.27209,262.04742 a 292.93158,154.79611 66.619876 0 1 7.20212,-4.4118 292.93158,154.79611 66.619876 0 1 259.16884,191.11255" />
      <path
         style="fill:url(#linearGradient1919);fill-opacity:1;stroke:url(#linearGradient1888);stroke-width:14.6268;stroke-opacity:1"
         id="path1516"
         d="M 849.46731,671.33135 A 242.62444,237.78828 0 0 1 618.34178,919.68523 242.62444,237.78828 0 0 1 364.74031,693.37803 242.62444,237.78828 0 0 1 595.4343,444.63905 242.62444,237.78828 0 0 1 849.42833,670.52298"
         transform="rotate(-12.97398)" />
      <path
         id="path1850"
         style="fill:none;stroke:#8ecce2;stroke-width:21;stroke-dasharray:none;stroke-opacity:1"
         d="m 868.67911,787.18049 a 292.93158,154.79611 66.619876 0 1 -3.64154,2.08997 292.93158,154.79611 66.619876 0 1 -259.14581,-191.69058 292.93158,154.79611 66.619876 0 1 6.30016,-335.25748" />
      <path
         id="path1992-7"
         style="fill:#2f2f2f;fill-opacity:1;stroke:none;stroke-width:12;stroke-opacity:1"
         d="m 605.44261,545.95988 a 38.774323,42.177814 67.298296 0 0 2.3436,6.74079 38.774323,42.177814 67.298296 0 0 54.91231,17.02916 38.774323,42.177814 67.298296 0 0 21.43728,-52.86722 l -0.0579,-0.11763 a 38.774323,42.177814 67.298296 0 0 -1.72164,-2.96148 z" />
      <path
         id="path1992-7-5"
         style="fill:#2f2f2f;fill-opacity:1;stroke:none;stroke-width:12;stroke-opacity:1"
         d="m 761.28476,479.40607 a 38.774323,42.177814 67.298296 0 0 2.3436,6.74079 38.774323,42.177814 67.298296 0 0 54.91232,17.02916 38.774323,42.177814 67.298296 0 0 21.43727,-52.86722 l -0.0579,-0.11763 a 38.774323,42.177814 67.298296 0 0 -1.72164,-2.96148 z" />
      <path
         id="path2346"
         style="fill:none;fill-opacity:1;stroke:#000000;stroke-width:12;stroke-opacity:1"
         d="m 789.00182,587.72642 16.89404,12.68045 -52.37829,22.35048 2.57724,-21.32383" />
    </g>
  </g>
</svg>
